<svg width="145" height="31" viewBox="0 0 145 31" fill="none" xmlns="http://www.w3.org/2000/svg">
<path d="M21.232 22.848C20.816 23.2 20.272 23.488 19.6 23.712C18.96 23.904 18.208 24 17.344 24C16.192 24 15.232 23.856 14.464 23.568C13.728 23.28 13.248 22.784 13.024 22.08C12.128 19.264 11.392 16.992 10.816 15.264C10.24 13.504 9.792 11.968 9.472 10.656H9.232C9.136 12.544 9.056 14.272 8.992 15.84C8.96 17.376 8.928 18.88 8.896 20.352C8.896 21.824 8.864 23.312 8.8 24.816C8.768 26.32 8.704 27.984 8.608 29.808C8.192 29.968 7.648 30.096 6.976 30.192C6.304 30.32 5.632 30.384 4.96 30.384C3.552 30.384 2.448 30.16 1.648 29.712C0.88 29.264 0.496 28.448 0.496 27.264L1.888 2.784C2.144 2.368 2.704 1.92 3.568 1.44C4.432 0.959999 5.648 0.719999 7.216 0.719999C8.912 0.719999 10.24 0.991999 11.2 1.536C12.16 2.048 12.864 2.896 13.312 4.08C13.6 4.848 13.904 5.728 14.224 6.72C14.576 7.712 14.912 8.736 15.232 9.792C15.584 10.848 15.92 11.904 16.24 12.96C16.56 13.984 16.848 14.912 17.104 15.744H17.344C18.112 13.056 18.88 10.464 19.648 7.968C20.416 5.44 21.12 3.328 21.76 1.632C22.24 1.376 22.848 1.168 23.584 1.008C24.352 0.815999 25.2 0.719999 26.128 0.719999C27.696 0.719999 28.976 0.959999 29.968 1.44C30.96 1.888 31.536 2.544 31.696 3.408C31.824 4.048 31.952 5.04 32.08 6.384C32.24 7.696 32.4 9.184 32.56 10.848C32.72 12.512 32.88 14.272 33.04 16.128C33.2 17.984 33.344 19.776 33.472 21.504C33.632 23.2 33.76 24.768 33.856 26.208C33.952 27.616 34.016 28.704 34.048 29.472C33.504 29.792 32.928 30.016 32.32 30.144C31.744 30.304 30.992 30.384 30.064 30.384C28.848 30.384 27.824 30.176 26.992 29.76C26.16 29.344 25.712 28.528 25.648 27.312C25.456 23.824 25.328 20.688 25.264 17.904C25.232 15.12 25.168 12.784 25.072 10.896H24.832C24.512 12.144 24.048 13.712 23.44 15.6C22.832 17.488 22.096 19.904 21.232 22.848ZM39.37 5.376C39.37 4 39.77 2.912 40.57 2.112C41.37 1.312 42.458 0.912 43.834 0.912H59.674C59.898 1.264 60.09 1.728 60.25 2.304C60.442 2.88 60.538 3.488 60.538 4.128C60.538 5.344 60.266 6.208 59.722 6.72C59.21 7.232 58.522 7.488 57.658 7.488H47.53V11.952H58.33C58.554 12.304 58.746 12.768 58.906 13.344C59.098 13.888 59.194 14.48 59.194 15.12C59.194 16.336 58.938 17.2 58.426 17.712C57.914 18.224 57.226 18.48 56.362 18.48H47.53V23.52H59.866C60.09 23.872 60.282 24.336 60.442 24.912C60.634 25.488 60.73 26.096 60.73 26.736C60.73 27.952 60.458 28.832 59.914 29.376C59.402 29.888 58.714 30.144 57.85 30.144H43.834C42.458 30.144 41.37 29.744 40.57 28.944C39.77 28.144 39.37 27.056 39.37 25.68V5.376ZM70.1309 30.144C68.7549 30.144 67.6669 29.744 66.8669 28.944C66.0669 28.144 65.6669 27.056 65.6669 25.68V0.863997C66.0189 0.799998 66.5789 0.719998 67.3469 0.623998C68.1149 0.495997 68.8509 0.431997 69.5549 0.431997C70.2909 0.431997 70.9309 0.495997 71.4749 0.623998C72.0509 0.719998 72.5309 0.911999 72.9149 1.2C73.2989 1.488 73.5869 1.888 73.7789 2.4C73.9709 2.912 74.0669 3.584 74.0669 4.416V23.376H85.0589C85.2829 23.728 85.4909 24.208 85.6829 24.816C85.8749 25.392 85.9709 26 85.9709 26.64C85.9709 27.92 85.6989 28.832 85.1549 29.376C84.6109 29.888 83.8909 30.144 82.9949 30.144H70.1309ZM87.3831 15.408C87.3831 12.912 87.7671 10.704 88.5351 8.784C89.3351 6.864 90.4071 5.264 91.7511 3.984C93.1271 2.672 94.7271 1.68 96.5511 1.008C98.4071 0.335999 100.407 0 102.551 0C104.695 0 106.679 0.335999 108.503 1.008C110.359 1.68 111.975 2.672 113.351 3.984C114.727 5.264 115.799 6.864 116.567 8.784C117.367 10.704 117.767 12.912 117.767 15.408C117.767 17.904 117.383 20.128 116.615 22.08C115.847 24 114.775 25.616 113.399 26.928C112.055 28.208 110.455 29.184 108.599 29.856C106.743 30.528 104.727 30.864 102.551 30.864C100.375 30.864 98.3591 30.528 96.5031 29.856C94.6471 29.152 93.0471 28.144 91.7031 26.832C90.3591 25.52 89.3031 23.904 88.5351 21.984C87.7671 20.064 87.3831 17.872 87.3831 15.408ZM96.0231 15.408C96.0231 18.32 96.6151 20.496 97.7991 21.936C98.9831 23.376 100.567 24.096 102.551 24.096C104.567 24.096 106.167 23.376 107.351 21.936C108.535 20.496 109.127 18.32 109.127 15.408C109.127 12.528 108.535 10.368 107.351 8.928C106.199 7.488 104.615 6.768 102.599 6.768C100.615 6.768 99.0151 7.488 97.7991 8.928C96.6151 10.336 96.0231 12.496 96.0231 15.408ZM130.829 18.432C129.421 17.952 128.141 17.472 126.989 16.992C125.837 16.48 124.845 15.872 124.013 15.168C123.181 14.464 122.525 13.632 122.045 12.672C121.597 11.68 121.373 10.48 121.373 9.072C121.373 6.352 122.413 4.176 124.493 2.544C126.605 0.911999 129.549 0.0959988 133.325 0.0959988C134.701 0.0959988 135.981 0.191998 137.165 0.383998C138.349 0.575999 139.357 0.879999 140.189 1.296C141.053 1.68 141.725 2.192 142.205 2.832C142.685 3.44 142.925 4.16 142.925 4.992C142.925 5.824 142.733 6.544 142.349 7.152C141.965 7.728 141.501 8.224 140.957 8.64C140.253 8.192 139.309 7.808 138.125 7.488C136.941 7.136 135.645 6.96 134.237 6.96C132.797 6.96 131.741 7.168 131.069 7.584C130.397 7.968 130.061 8.464 130.061 9.072C130.061 9.552 130.269 9.952 130.685 10.272C131.101 10.56 131.725 10.832 132.557 11.088L135.101 11.904C138.109 12.864 140.413 14.096 142.013 15.6C143.645 17.072 144.461 19.088 144.461 21.648C144.461 24.368 143.389 26.576 141.245 28.272C139.101 29.936 135.949 30.768 131.789 30.768C130.317 30.768 128.941 30.64 127.661 30.384C126.413 30.16 125.309 29.824 124.349 29.376C123.421 28.896 122.685 28.32 122.141 27.648C121.629 26.944 121.373 26.144 121.373 25.248C121.373 24.32 121.645 23.536 122.189 22.896C122.733 22.224 123.325 21.712 123.965 21.36C124.861 22.064 125.949 22.672 127.229 23.184C128.541 23.696 129.965 23.952 131.501 23.952C133.069 23.952 134.173 23.712 134.813 23.232C135.453 22.752 135.773 22.192 135.773 21.552C135.773 20.912 135.517 20.432 135.005 20.112C134.493 19.76 133.773 19.424 132.845 19.104L130.829 18.432Z" fill="#0093C4"/>
</svg>
