<svg width="24" height="30" viewBox="0 0 16 22" fill="none" xmlns="http://www.w3.org/2000/svg">
<path d="M7.17783 20.9276C1.12375 12.1406 0 11.2388 0 8.00943C0 3.58593 3.58171 0 8 0C12.4183 0 16 3.58593 16 8.00943C16 11.2388 14.8763 12.1406 8.82217 20.9276C8.42488 21.5022 7.57508 21.5021 7.17783 20.9276ZM8 11.3467C9.84096 11.3467 11.3333 9.85256 11.3333 8.00943C11.3333 6.1663 9.84096 4.67217 8 4.67217C6.15904 4.67217 4.66667 6.1663 4.66667 8.00943C4.66667 9.85256 6.15904 11.3467 8 11.3467Z" fill="#F2C94C"/>
</svg>
