<svg width="22" height="24" viewBox="0 0 22 24" fill="none" xmlns="http://www.w3.org/2000/svg">
<path d="M11.0414 17.7C10.6251 17.7 10.2137 17.6659 9.81203 17.6002L9.07686 19.0705C9.71709 19.2092 10.3744 19.2798 11.0438 19.2798C11.7132 19.2798 12.3681 19.2092 13.0108 19.0705L12.2756 17.6002C11.869 17.6659 11.4576 17.7 11.0414 17.7Z" fill="white"/>
<path d="M20.433 7.44172H19.8779C19.7806 7.11552 19.6662 6.79663 19.5323 6.48016C19.4349 6.2489 19.3278 6.02251 19.2134 5.80342L19.598 5.4188C19.8828 5.13398 19.8828 4.67146 19.598 4.38665L16.8375 1.62856C16.5527 1.34375 16.0902 1.34375 15.8054 1.62856L15.4572 1.97667C15.1895 1.83061 14.9144 1.69672 14.6296 1.57744C14.3326 1.45086 14.0307 1.34131 13.724 1.24881V0.730296C13.724 0.326199 13.3978 0 12.9937 0H9.09149C8.68737 0 8.3612 0.326199 8.3612 0.730296V1.24881C8.05445 1.34131 7.75262 1.45086 7.45563 1.57744C7.15377 1.70646 6.85922 1.85008 6.5744 2.00832L6.19465 1.62856C5.90983 1.34375 5.44731 1.34375 5.1625 1.62856L2.40198 4.38665C2.11716 4.67146 2.11716 5.13398 2.40198 5.4188L2.84259 5.85941C2.73791 6.06146 2.64054 6.27081 2.55047 6.4826C2.40685 6.82584 2.2827 7.17395 2.18045 7.52692H1.56457C1.16047 7.52692 0.834274 7.85312 0.834274 8.25722V12.157C0.834274 12.5611 1.16047 12.8873 1.56457 12.8873H2.26566C2.34842 13.1453 2.44336 13.4009 2.55047 13.6541C2.66002 13.9097 2.7793 14.1604 2.90832 14.4039L2.40198 14.9102C2.11716 15.195 2.11716 15.6576 2.40198 15.9424L4.80952 18.3499L6.06563 15.8547L8.51456 13.3912L3.90395 22.6173C3.67756 23.1041 3.88935 23.6835 4.37621 23.9099C4.5101 23.9708 4.64886 24 4.78518 24C5.15276 24 5.5033 23.7906 5.66884 23.4376L10.574 13.6249C10.7274 13.6468 10.8832 13.6565 11.0438 13.6565C11.2045 13.6565 11.3603 13.6443 11.5137 13.6249L16.4188 23.4376C16.5844 23.7931 16.9349 24 17.3025 24C17.4388 24 17.58 23.9708 17.7114 23.9099C18.1983 23.6835 18.4101 23.1041 18.1837 22.6173L13.5731 13.3912L16.0318 15.8718L17.2441 18.2963L19.5956 15.9448C19.8804 15.66 19.8804 15.1975 19.5956 14.9127L19.1452 14.4599C19.2864 14.1994 19.4154 13.9316 19.5322 13.6541C19.6515 13.3742 19.7538 13.0893 19.8438 12.8021H20.4354C20.8395 12.8021 21.1657 12.4759 21.1657 12.0718V8.17202C21.1633 7.77036 20.8371 7.44172 20.433 7.44172ZM14.3228 9.63505C14.2157 9.1068 13.982 8.6248 13.6583 8.21827L16.801 5.05609C17.9183 6.33654 18.5683 7.93345 18.6632 9.63505H14.3228ZM3.42193 9.63505C3.51687 7.93345 4.16684 6.33897 5.28419 5.05609L8.4269 8.21827C8.10313 8.6248 7.86946 9.1068 7.76233 9.63505H3.42193ZM16.1145 4.36474L12.945 7.5537C12.5312 7.26645 12.0492 7.0717 11.5282 6.99624V2.45136C13.2371 2.55847 14.8365 3.22548 16.1145 4.36474ZM10.5545 2.45136V6.99867C10.0336 7.07414 9.55156 7.26888 9.13772 7.55613L5.96823 4.36717C7.24625 3.22548 8.8456 2.55847 10.5545 2.45136ZM5.36939 15.1756C4.22283 13.9048 3.54608 12.3128 3.42924 10.6112H7.70634C7.75989 11.2101 7.96925 11.7651 8.29788 12.2325L5.36939 15.1756ZM14.3764 10.6088H18.6535C18.5342 12.3104 17.8575 13.9048 16.7133 15.1731L13.7873 12.2276C14.1135 11.7626 14.3253 11.2101 14.3764 10.6088Z" fill="white"/>
</svg>
