<svg width="24" height="16" viewBox="0 0 24 16" fill="none" xmlns="http://www.w3.org/2000/svg">
<path d="M5.33333 4H18.6667V12H5.33333V4ZM22 8C22 9.10458 22.8954 10 24 10V14C24 15.1046 23.1046 16 22 16H2C0.895417 16 0 15.1046 0 14V10C1.10458 10 2 9.10458 2 8C2 6.89542 1.10458 6 0 6V2C0 0.895417 0.895417 0 2 0H22C23.1046 0 24 0.895417 24 2V6C22.8954 6 22 6.89542 22 8ZM20 3.66667C20 3.11438 19.5523 2.66667 19 2.66667H5C4.44771 2.66667 4 3.11438 4 3.66667V12.3333C4 12.8856 4.44771 13.3333 5 13.3333H19C19.5523 13.3333 20 12.8856 20 12.3333V3.66667Z" fill="white"/>
</svg>
