<svg width="24" height="24" viewBox="0 0 24 24" fill="none" xmlns="http://www.w3.org/2000/svg">
<path d="M23.5608 1.82812L22.1719 0.439217C22.0326 0.299892 21.8672 0.189373 21.6852 0.113969C21.5032 0.0385658 21.3081 -0.000244141 21.1111 -0.000244141C20.9141 -0.000244141 20.719 0.0385658 20.537 0.113969C20.355 0.189373 20.1896 0.299892 20.0503 0.439217L17.8809 2.61093C17.6991 2.79229 17.5622 3.01365 17.4811 3.25734L16.9111 4.96875L13.3364 8.54343C12.7664 8.13281 12.1411 7.80562 11.4567 7.64625C9.88875 7.28156 8.31609 7.605 7.24359 8.6775C6.80608 9.11679 6.48067 9.6549 6.29484 10.2464C6.01359 11.1164 5.20687 11.7787 4.31906 11.8617C3.20812 11.9681 2.17547 12.3984 1.38422 13.1948C-0.755159 15.3281 -0.370316 19.1719 2.23031 21.7711C4.83093 24.3703 8.67187 24.75 10.8075 22.6181C11.6044 21.8269 12.0337 20.7947 12.1411 19.6786C12.2236 18.795 12.8859 17.985 13.755 17.7033C14.3466 17.5171 14.8848 17.1916 15.3244 16.7541C16.3964 15.6816 16.7184 14.1122 16.3556 12.547C16.1967 11.8608 15.8695 11.2345 15.4575 10.6627L19.0312 7.0889L20.7412 6.5189C20.9849 6.43784 21.2063 6.30091 21.3877 6.11906L23.5594 3.94781C23.8404 3.66676 23.9983 3.28568 23.9986 2.88826C23.9989 2.49083 23.8414 2.10955 23.5608 1.82812ZM9.75 16.5C9.30499 16.5 8.86997 16.368 8.49996 16.1208C8.12995 15.8736 7.84156 15.5222 7.67127 15.111C7.50097 14.6999 7.45641 14.2475 7.54323 13.811C7.63005 13.3746 7.84434 12.9737 8.15901 12.659C8.47367 12.3443 8.87459 12.13 9.31104 12.0432C9.7475 11.9564 10.1999 12.001 10.611 12.1713C11.0222 12.3416 11.3736 12.6299 11.6208 13C11.868 13.37 12 13.805 12 14.25C12 14.8467 11.7629 15.419 11.341 15.841C10.919 16.2629 10.3467 16.5 9.75 16.5Z" fill="white"/>
</svg>
