<svg width="18" height="20" viewBox="0 0 18 20" fill="none" xmlns="http://www.w3.org/2000/svg">
<path d="M8.4 0.519746C3.62 0.829746 0 5.01975 0 9.80975V16.4997C0 18.1597 1.34 19.4997 3 19.4997H4C5.1 19.4997 6 18.5997 6 17.4997V13.4997C6 12.3997 5.1 11.4997 4 11.4997H2V9.78975C2 5.94975 4.96 2.60975 8.79 2.49975C12.76 2.38975 16 5.55975 16 9.49975V11.4997H14C12.9 11.4997 12 12.3997 12 13.4997V17.4997C12 18.5997 12.9 19.4997 14 19.4997H15C16.66 19.4997 18 18.1597 18 16.4997V9.49975C18 4.32975 13.64 0.179746 8.4 0.519746Z" fill="white"/>
</svg>
