<svg width="24" height="20" viewBox="0 0 24 20" fill="none" xmlns="http://www.w3.org/2000/svg">
<path d="M7.75724 9.1968C6.41174 9.58883 5.50912 10.7424 5.59987 11.9767C6.02737 11.4995 6.68024 11.0876 7.47111 10.8167L7.75724 9.1968ZM3.59287 11.0669L2.40299 4.3326C2.39212 4.27183 2.41349 4.23432 2.41199 4.23319C4.57799 3.03046 7.02899 2.39458 9.49986 2.39458C9.56024 2.39458 9.62099 2.40096 9.68174 2.40171C10.2049 1.89638 10.8716 1.54524 11.6164 1.42632C12.3247 1.31302 13.0432 1.25563 13.7606 1.22674C13.386 0.703406 12.8426 0.317752 12.1942 0.213835C11.2976 0.0709033 10.3965 0 9.49949 0C6.62474 0 3.78824 0.728541 1.24499 2.1406C0.338619 2.64406 -0.147005 3.69447 0.0393695 4.74865L1.22924 11.483C1.76287 14.5037 6.34162 16.8131 8.89611 16.8131C9.03074 16.8131 9.14924 16.7958 9.27149 16.7831C8.76449 16.1423 8.18624 15.2645 7.79024 14.2478C6.00487 13.7609 3.81299 12.3113 3.59287 11.0669ZM7.25099 5.91011C7.22361 5.75555 7.16736 5.61487 7.09836 5.48244C6.78899 5.8167 6.32324 6.0733 5.77387 6.16971C5.22449 6.2665 4.69874 6.18472 4.29337 5.97576C4.27387 6.12357 4.26937 6.27513 4.29674 6.42969C4.44074 7.24377 5.21849 7.78736 6.03449 7.64405C6.85011 7.50074 7.39499 6.72418 7.25099 5.91011ZM22.755 4.53556C19.4182 2.68307 15.5764 2.00668 11.8057 2.60917C10.7816 2.77273 9.96524 3.59431 9.77924 4.64848L8.58936 11.3828C8.01224 14.6485 12.1624 18.7459 14.526 19.1615C16.8896 19.5776 22.1936 17.1436 22.7707 13.8779L23.9606 7.1436C24.147 6.08906 23.6614 5.03864 22.755 4.53556ZM12.5085 8.16701C12.6525 7.35294 13.4302 6.80934 14.2462 6.95303C15.0622 7.09671 15.6067 7.87289 15.4631 8.68697C15.4357 8.84153 15.3795 8.98221 15.3105 9.11464C15.0011 8.78038 14.5354 8.52378 13.986 8.42736C13.4366 8.33058 12.9109 8.41236 12.5055 8.62132C12.4856 8.47313 12.4811 8.32157 12.5085 8.16701ZM15.1511 15.6235C13.0631 15.2562 11.6441 13.4 11.8121 11.388C12.5846 12.3462 13.92 13.1201 15.543 13.4056C17.166 13.6911 18.6862 13.4195 19.7404 12.7829C19.2086 14.7314 17.2387 15.9908 15.1511 15.6235ZM20.0374 9.94597C19.728 9.61171 19.2619 9.35511 18.7125 9.2587C18.1631 9.16191 17.6374 9.24369 17.232 9.45265C17.2125 9.30484 17.208 9.15328 17.2354 8.99872C17.3794 8.18464 18.1571 7.64105 18.9731 7.78436C19.7887 7.92804 20.3336 8.70422 20.19 9.5183C20.1626 9.67324 20.1064 9.81392 20.0374 9.94597Z" fill="white"/>
</svg>
